<svg width="203" height="38" viewBox="0 0 203 38" fill="none" xmlns="http://www.w3.org/2000/svg">
<path d="M45.0078 34.1325L50.5052 6.42119H67.0814L66.0244 11.7426H55.7063L54.4797 18.0004H63.275L62.2179 23.2774H53.464L51.3086 34.1325H45.0078ZM72.6215 34.643C70.7596 34.643 69.308 33.969 68.2652 32.6211C67.2224 31.2732 66.701 29.3517 66.701 26.8537C66.701 24.839 67.0102 22.9591 67.6313 21.2139C68.251 19.4688 69.0829 17.9359 70.1257 16.6167C71.1685 15.2974 72.3608 14.2678 73.6999 13.5308C75.0376 12.7923 76.4408 12.4238 77.9066 12.4238C78.8369 12.4238 79.7187 12.6647 80.5492 13.1479C81.3811 13.6297 81.9951 14.2965 82.3897 15.1483H82.4738L83.404 12.9342H88.437L84.2075 34.1325H79.0904L79.1332 31.451H79.0491C78.1189 32.4161 77.0747 33.189 75.9194 33.7711C74.764 34.3519 73.6643 34.643 72.6215 34.643ZM75.3695 29.4922C76.0177 29.4922 76.7157 29.2871 77.4622 28.8756C78.2101 28.4641 78.8796 27.6911 79.4708 26.5555L80.9096 19.4043C80.6275 18.7518 80.2472 18.2829 79.7671 18.0004C79.2885 17.7165 78.8226 17.5745 78.3725 17.5745C77.6958 17.5745 77.0476 17.7868 76.4265 18.2127C75.8068 18.6385 75.2498 19.2265 74.7569 19.9793C74.2626 20.7307 73.8751 21.6255 73.5931 22.6608C73.311 23.6961 73.17 24.8247 73.17 26.045C73.17 27.2653 73.3751 28.1443 73.784 28.6835C74.1928 29.2226 74.7213 29.4922 75.3695 29.4922ZM89.3672 34.1325L93.5953 12.9342H99.8534L95.6681 34.1325H89.3672ZM97.6553 9.99749C96.8376 9.99749 96.0755 9.74941 95.3717 9.25183C94.6666 8.75568 94.3147 8.01145 94.3147 7.01772C94.3147 6.02398 94.688 5.16647 95.4344 4.44232C96.1823 3.71817 97.0912 3.35681 98.1625 3.35681C99.0087 3.35681 99.7765 3.61206 100.467 4.12255C101.158 4.63447 101.503 5.37153 101.503 6.33658C101.503 7.38624 101.137 8.25953 100.403 8.955C99.6711 9.64904 98.7551 9.99749 97.6553 9.99749ZM100.826 34.1325L105.056 12.9342H110.13L109.918 17.0641H110.087C110.934 15.729 111.905 14.6235 113.005 13.743C114.105 12.864 115.247 12.4238 116.431 12.4238C116.995 12.4238 117.46 12.4596 117.826 12.5299C118.193 12.6016 118.474 12.7077 118.672 12.8496L116.642 18.2973C116.36 18.1281 116.015 18.0277 115.606 18.0004C115.197 17.9718 114.824 17.9574 114.485 17.9574C113.612 17.9574 112.759 18.2772 111.927 18.9153C111.096 19.5534 110.257 20.5959 109.411 22.0442L107.127 34.1325H100.826ZM118.079 34.1325L123.577 6.42119H129.836L133.853 20.3407C134.022 20.9085 134.177 21.5179 134.318 22.1718C134.459 22.8243 134.6 23.5054 134.741 24.2152C134.882 24.9236 135.023 25.6478 135.164 26.3848H135.334C135.418 24.796 135.559 23.1082 135.757 21.3201C135.953 19.5319 136.207 17.8155 136.517 16.1693L138.462 6.42119H144.425L138.928 34.1325H132.67L128.694 20.213C128.469 19.3899 128.251 18.4607 128.038 17.4254C127.828 16.3901 127.608 15.3046 127.383 14.1689H127.214C127.101 15.7018 126.953 17.3681 126.771 19.1705C126.587 20.973 126.326 22.6967 125.987 24.3428L124.085 34.1325H118.079ZM154.616 34.643C151.826 34.643 149.605 33.8342 147.957 32.2167C146.307 30.5992 145.482 28.3723 145.482 25.5345C145.482 23.5757 145.827 21.7947 146.518 20.1915C147.209 18.5884 148.125 17.2046 149.267 16.0416C150.408 14.8787 151.678 13.9839 153.072 13.3601C154.468 12.7364 155.857 12.4238 157.238 12.4238C158.957 12.4238 160.325 12.7851 161.34 13.5093C162.355 14.232 163.081 15.197 163.517 16.403C163.954 17.609 164.174 18.9511 164.174 20.4267C164.174 21.1078 164.11 21.789 163.983 22.4687C163.856 23.1498 163.715 23.7535 163.56 24.2783C163.405 24.8031 163.271 25.1788 163.158 25.4068H150.133L150.64 21.2355H158.887C158.971 21.0361 159.021 20.8511 159.035 20.6819C159.05 20.5113 159.057 20.312 159.057 20.0854C159.057 19.5749 158.978 19.106 158.823 18.6816C158.669 18.2557 158.401 17.9144 158.02 17.6592C157.639 17.4039 157.125 17.2763 156.477 17.2763C155.998 17.2763 155.463 17.4039 154.87 17.6592C154.277 17.9144 153.715 18.3403 153.178 18.9368C152.643 19.5319 152.206 20.3191 151.867 21.2985C151.529 22.2779 151.36 23.4911 151.36 24.9379C151.36 26.2156 151.565 27.2007 151.974 27.8962C152.381 28.5917 152.931 29.0807 153.622 29.3646C154.313 29.6485 155.081 29.7905 155.927 29.7905C156.575 29.7905 157.259 29.67 157.978 29.4291C158.696 29.1882 159.296 28.8971 159.775 28.5558L161.847 32.2598C160.973 32.9696 159.916 33.5431 158.676 33.9834C157.436 34.4236 156.082 34.643 154.616 34.643ZM166.879 34.1325L170.136 17.8298H167.259L168.232 13.1895L171.193 12.9342L171.362 11.9548C171.644 10.4793 172.123 9.13855 172.8 7.93258C173.476 6.72662 174.385 5.7544 175.528 5.01734C176.669 4.27885 178.072 3.91032 179.734 3.91032C180.58 3.91032 181.405 4.00926 182.209 4.20858C183.012 4.40647 183.752 4.6904 184.428 5.06036L182.441 9.40096C182.216 9.259 181.905 9.13855 181.511 9.0396C181.116 8.94066 180.736 8.89047 180.37 8.89047C179.664 8.89047 179.086 9.06828 178.636 9.42247C178.184 9.77809 177.845 10.5367 177.62 11.6996L177.367 12.9342H180.961L179.989 17.8298H176.352L173.18 34.1325H166.879ZM188.277 34.643C186.135 34.643 184.576 34.0967 183.605 33.004C182.632 31.9113 182.145 30.529 182.145 28.8541C182.145 28.3723 182.18 27.9105 182.251 27.4703C182.321 27.0315 182.4 26.5841 182.484 26.1296L184.217 17.8298H181.427L182.4 13.1895L185.444 12.9342L187.431 6.50723H192.718L191.491 12.9342H196.185L195.212 17.8298H190.391L188.658 26.3432C188.629 26.5985 188.608 26.8394 188.594 27.0659C188.579 27.2939 188.572 27.5205 188.572 27.7471C188.572 28.401 188.749 28.8899 189.101 29.2155C189.454 29.5424 189.926 29.7059 190.518 29.7059C190.856 29.7059 191.174 29.67 191.47 29.5998C191.766 29.5281 192.041 29.4363 192.295 29.323L193.436 33.622C192.844 33.8773 192.104 34.111 191.216 34.3247C190.327 34.5369 189.349 34.643 188.277 34.643Z" fill="white"/>
<path fill-rule="evenodd" clip-rule="evenodd" d="M0 37.9799H9.50467V9.58598H18.5449L9.08158 0.0200195H0V37.9799Z" fill="#77C476"/>
<path fill-rule="evenodd" clip-rule="evenodd" d="M37.7622 0.0200195H28.2576V28.4139H19.2173L28.6806 37.9799H37.7622V0.0200195Z" fill="#77C476"/>
<path fill-rule="evenodd" clip-rule="evenodd" d="M14.3252 14.3811H23.4367V23.5513H14.3252V14.3811Z" fill="white"/>
<path d="M198.746 9.4827L198.742 6.83418L197.85 6.82987V6.51297L200.01 6.50867V6.83418L199.114 6.82987L199.119 9.4827H198.746ZM200.54 9.4827V6.51297H201.013L201.57 8.1018C201.605 8.20218 201.639 8.30112 201.671 8.4015C201.702 8.50044 201.735 8.60655 201.768 8.7184H201.786C201.819 8.60655 201.85 8.50044 201.88 8.4015C201.91 8.30112 201.941 8.20218 201.974 8.1018L202.533 6.51297H203V9.4827H202.649V7.84799C202.649 7.76052 202.652 7.66301 202.658 7.55403C202.664 7.44648 202.671 7.3375 202.678 7.23138C202.686 7.12384 202.694 7.02633 202.704 6.93886H202.685L202.456 7.6544L201.903 9.18874H201.628L201.075 7.6544L200.846 6.93886H200.827C200.837 7.02633 200.845 7.12384 200.853 7.23138C200.86 7.3375 200.867 7.44648 200.873 7.55403C200.879 7.66301 200.882 7.76052 200.882 7.84799V9.4827H200.54Z" fill="white"/>
</svg>
